<?xml version="1.0" encoding="utf-8"?>
<!-- Generator: Adobe Illustrator 24.1.2, SVG Export Plug-In . SVG Version: 6.00 Build 0)  -->
<svg version="1.1" id="Layer_1" xmlns="http://www.w3.org/2000/svg" xmlns:xlink="http://www.w3.org/1999/xlink" x="0px" y="0px"
	 viewBox="0 0 800 800" style="enable-background:new 0 0 800 800;" xml:space="preserve">
<style type="text/css">
	.st0{fill:none;stroke:#ED254E;stroke-width:15;stroke-linecap:round;stroke-miterlimit:10;}
	.st1{fill:none;stroke:#F9DC5C;stroke-width:15;stroke-linecap:round;stroke-miterlimit:10;}
	.st2{fill:none;stroke:#011936;stroke-width:15;stroke-linecap:round;stroke-miterlimit:10;}
</style>
<g transform="rotate(0,0,0) translate(5,2) scale(1,1)">
	<path class="st0" d="M363.4,401.4c0-21.6,17.5-39.2,39.2-39.2c21.6,0,39.2,17.5,39.2,39.2c0,21.6-17.5,39.2-39.2,39.2
		C380.9,440.6,363.4,423,363.4,401.4z"/>
	<path class="st0" d="M324.2,401.4c0-43.2,35.1-78.3,78.3-78.3s78.3,35.1,78.3,78.3s-35.1,78.3-78.3,78.3S324.2,444.7,324.2,401.4z"
		/>
	<path class="st0" d="M285.1,401.4c0-64.9,52.6-117.5,117.5-117.5S520,336.6,520,401.4s-52.6,117.5-117.5,117.5
		S285.1,466.3,285.1,401.4z"/>
	<path class="st0" d="M245.9,401.4c0-86.5,70.2-156.6,156.6-156.6s156.6,70.2,156.6,156.6S489,558.1,402.5,558.1
		S245.9,487.9,245.9,401.4z"/>
	<path class="st0" d="M206.7,401.4c0-108.1,87.7-195.8,195.8-195.8s195.8,87.7,195.8,195.8s-87.7,195.8-195.8,195.8
		S206.7,509.5,206.7,401.4z"/>
	<path class="st0" d="M167.6,401.4c0-129.7,105.3-235,235-235s235,105.3,235,235s-105.3,235-235,235S167.6,531.1,167.6,401.4z"/>
	<path class="st0" d="M128.4,401.4c0-151.3,122.8-274.1,274.1-274.1s274.1,122.8,274.1,274.1S553.9,675.5,402.5,675.5
		S128.4,552.7,128.4,401.4z"/>
	<path class="st0" d="M89.3,401.4c0-173.1,140.2-313.3,313.3-313.3s313.3,140.2,313.3,313.3S575.6,714.7,402.5,714.7
		S89.3,574.5,89.3,401.4z"/>
	<path class="st0" d="M50.1,401.4C50.1,206.7,207.8,49,402.5,49S755,206.7,755,401.4S597.3,753.9,402.5,753.9S50.1,596.1,50.1,401.4
		z"/>
</g>
<g transform="rotate(0,0,0) translate(-1,0) scale(1,1)">
	<path class="st1" d="M360,400.3c0-21.6,17.5-39.2,39.2-39.2s39.2,17.5,39.2,39.2c0,21.6-17.5,39.2-39.2,39.2S360,421.9,360,400.3z"
		/>
	<path class="st1" d="M320.8,400.3c0-43.2,35.1-78.3,78.3-78.3s78.3,35.1,78.3,78.3s-35.1,78.3-78.3,78.3S320.8,443.5,320.8,400.3z"
		/>
	<path class="st1" d="M281.7,400.3c0-64.9,52.6-117.5,117.5-117.5s117.5,52.6,117.5,117.5S464,517.8,399.2,517.8
		S281.7,465.1,281.7,400.3z"/>
	<path class="st1" d="M242.5,400.3c0-86.5,70.2-156.6,156.6-156.6s156.6,70.2,156.6,156.6s-70.2,156.6-156.6,156.6
		S242.5,486.8,242.5,400.3z"/>
	<path class="st1" d="M203.3,400.3c0-108.1,87.7-195.8,195.8-195.8S595,292.2,595,400.3s-87.7,195.8-195.8,195.8
		S203.3,508.4,203.3,400.3z"/>
	<path class="st1" d="M164.2,400.3c0-129.7,105.3-235,235-235s235,105.3,235,235s-105.3,235-235,235S164.2,530,164.2,400.3z"/>
	<path class="st1" d="M125,400.3c0-151.3,122.8-274.1,274.1-274.1S673.3,249,673.3,400.3S550.5,674.4,399.2,674.4
		S125,551.6,125,400.3z"/>
	<path class="st1" d="M85.9,400.3C85.9,227.2,226.1,87,399.2,87s313.3,140.2,313.3,313.3S572.2,713.6,399.2,713.6
		S85.9,573.4,85.9,400.3z"/>
	<path class="st1" d="M46.7,400.3c0-194.7,157.7-352.5,352.5-352.5s352.5,157.7,352.5,352.5S593.9,752.7,399.2,752.7
		S46.7,595,46.7,400.3z"/>
</g>
<g transform="rotate(0,0,0) translate(-4,-3) scale(1,1)">
	<path class="st2" d="M358.3,398.6c0-21.6,17.5-39.2,39.2-39.2c21.6,0,39.2,17.5,39.2,39.2c0,21.6-17.5,39.2-39.2,39.2
		C375.8,437.7,358.3,420.2,358.3,398.6z"/>
	<path class="st2" d="M319.1,398.6c0-43.2,35.1-78.3,78.3-78.3s78.3,35.1,78.3,78.3s-35.1,78.3-78.3,78.3S319.1,441.8,319.1,398.6z"
		/>
	<path class="st2" d="M280,398.6c0-64.9,52.6-117.5,117.5-117.5s117.5,52.6,117.5,117.5s-52.6,117.5-117.5,117.5
		S280,463.4,280,398.6z"/>
	<path class="st2" d="M240.8,398.6c0-86.5,70.2-156.6,156.6-156.6s156.6,70.2,156.6,156.6s-70.2,156.6-156.6,156.6
		S240.8,485.1,240.8,398.6z"/>
	<path class="st2" d="M201.6,398.6c0-108.1,87.7-195.8,195.8-195.8s195.8,87.7,195.8,195.8s-87.7,195.8-195.8,195.8
		S201.6,506.7,201.6,398.6z"/>
	<path class="st2" d="M162.5,398.6c0-129.7,105.3-235,235-235s235,105.3,235,235s-105.3,235-235,235S162.5,528.3,162.5,398.6z"/>
	<path class="st2" d="M123.3,398.6c0-151.3,122.8-274.1,274.1-274.1s274.1,122.8,274.1,274.1S548.8,672.7,397.5,672.7
		S123.3,549.9,123.3,398.6z"/>
	<path class="st2" d="M84.2,398.6c0-173.1,140.2-313.3,313.3-313.3s313.3,140.2,313.3,313.3S570.5,711.9,397.5,711.9
		S84.2,571.7,84.2,398.6z"/>
	<path class="st2" d="M45,398.6C45,203.9,202.7,46.1,397.5,46.1s352.5,157.7,352.5,352.5S592.2,751,397.5,751S45,593.3,45,398.6z"/>
</g>
</svg>
